# xmcd
#
# Track frame offsets:
#	183
#	13220
#	27070
#	41595
#	55795
#	68845
#	81245
#	92845
#	106070
#	117070
#	128845
#	141295
#	151833
#	173895
#	188220
#	200395
#
# Disc length: 2807
#
# Revision: 1
# Processed by: cddbd v1.5.1PL0 Copyright (c) Steve Scherf et al.
# Submitted via: FreeRIP 2.93 
# Normalized: r0:TDELIM( - )
#
DISCID=cf0af510
DTITLE=Black and Soul Blues Elettrico
DYEAR=1900
DGENRE=Blues
TTITLE0=Albert King - Be on your merry way 1953
TTITLE1=Albert King - Searching For A Woman 1961
TTITLE2=Otis Rush - So Many Roads, So Many Train1960
TTITLE3=Muddy Waters - Rollin' Stone 1950
TTITLE4=Muddy Waters - I'm Your Hoochie Coochie Man 1954
TTITLE5=Otis Span - I'm Love With You Baby 1960
TTITLE6=John Lee Hooker - Boom Boom 1962
TTITLE7=Elmore James - Dust My Broom 1952
TTITLE8=Howlin' Wolf - Highway Man 1952
TTITLE9=Sonny Boy Williamson - Don't Start Me To Talkin' 1955
TTITLE10=John Lee Hooker - Walkin' The Boogie 1952
TTITLE11=Buddy Guy - First Time I met The Blues 1960
TTITLE12=Robert Cry - I'd Rather Be A Wino 1980
TTITLE13=Lowell Fulson - Reconsider Baby 1954
TTITLE14=Little Milton - We Gonna Make It 1965
TTITLE15=Jimmy Reed - Ain't That Loving You Baby 1955
EXTD=
EXTT0=
EXTT1=
EXTT2=
EXTT3=
EXTT4=
EXTT5=
EXTT6=
EXTT7=
EXTT8=
EXTT9=
EXTT10=
EXTT11=
EXTT12=
EXTT13=
EXTT14=
EXTT15=
PLAYORDER=
